<svg xmlns="http://www.w3.org/2000/svg" width="16" height="15.364" viewBox="0 0 16 15.364">
  <g id="Icon_feather-shopping-cart" data-name="Icon feather-shopping-cart" transform="translate(-0.5 -0.5)">
    <path id="Контур_25" data-name="Контур 25" d="M13.545,30.773A.773.773,0,1,1,12.773,30,.773.773,0,0,1,13.545,30.773Z" transform="translate(-6.141 -16.682)" fill="none" stroke="#fff" stroke-linecap="round" stroke-linejoin="round" stroke-width="2"/>
    <path id="Контур_26" data-name="Контур 26" d="M30.045,30.773A.773.773,0,1,1,29.273,30,.773.773,0,0,1,30.045,30.773Z" transform="translate(-16.091 -16.682)" fill="none" stroke="#fff" stroke-linecap="round" stroke-linejoin="round" stroke-width="2"/>
    <path id="Контур_27" data-name="Контур 27" d="M1.5,1.5H4.045L5.751,9.291a1.252,1.252,0,0,0,1.273.937h6.185a1.252,1.252,0,0,0,1.273-.937L15.5,4.409H4.682" transform="translate(0)" fill="none" stroke="#fff" stroke-linecap="round" stroke-linejoin="round" stroke-width="2"/>
  </g>
</svg>
