<svg xmlns="http://www.w3.org/2000/svg" xmlns:xlink="http://www.w3.org/1999/xlink" width="75.225" height="75.221" viewBox="0 0 75.225 75.221">
  <defs>
    <filter id="Icon_awesome-instagram" x="0" y="0" width="75.225" height="75.221" filterUnits="userSpaceOnUse">
      <feOffset input="SourceAlpha"/>
      <feGaussianBlur stdDeviation="10" result="blur"/>
      <feFlood flood-opacity="0.4"/>
      <feComposite operator="in" in2="blur"/>
      <feComposite in="SourceGraphic"/>
    </filter>
  </defs>
  <g transform="matrix(1, 0, 0, 1, 0, 0)" filter="url(#Icon_awesome-instagram)">
    <path id="Icon_awesome-instagram-2" data-name="Icon awesome-instagram" d="M7.609,5.946a3.9,3.9,0,1,0,3.9,3.9A3.9,3.9,0,0,0,7.609,5.946Zm0,6.44a2.537,2.537,0,1,1,2.537-2.537A2.542,2.542,0,0,1,7.609,12.386Zm4.973-6.6a.91.91,0,1,1-.91-.91A.908.908,0,0,1,12.581,5.786Zm2.585.924a4.5,4.5,0,0,0-1.23-3.189,4.534,4.534,0,0,0-3.189-1.23c-1.257-.071-5.023-.071-6.28,0A4.528,4.528,0,0,0,1.278,3.517,4.519,4.519,0,0,0,.048,6.707c-.071,1.257-.071,5.023,0,6.28a4.5,4.5,0,0,0,1.23,3.189,4.54,4.54,0,0,0,3.189,1.23c1.257.071,5.023.071,6.28,0a4.5,4.5,0,0,0,3.189-1.23,4.534,4.534,0,0,0,1.23-3.189c.071-1.257.071-5.02,0-6.277Zm-1.624,7.625A2.569,2.569,0,0,1,12.1,15.782a16.775,16.775,0,0,1-4.487.306,16.906,16.906,0,0,1-4.487-.306,2.569,2.569,0,0,1-1.447-1.447,16.775,16.775,0,0,1-.306-4.487,16.906,16.906,0,0,1,.306-4.487A2.569,2.569,0,0,1,3.122,3.915a16.775,16.775,0,0,1,4.487-.306,16.906,16.906,0,0,1,4.487.306,2.569,2.569,0,0,1,1.447,1.447,16.775,16.775,0,0,1,.306,4.487A16.766,16.766,0,0,1,13.543,14.335Z" transform="translate(30.01 27.76)" fill="#fff"/>
  </g>
</svg>
