<svg xmlns="http://www.w3.org/2000/svg" width="73" height="74" viewBox="0 0 73 74">
  <g id="Сгруппировать_140" data-name="Сгруппировать 140" transform="translate(-797 -554)">
    <g id="Эллипс_8" data-name="Эллипс 8" transform="translate(797 554)" stroke="#fff" stroke-width="7">
      <ellipse cx="36.5" cy="37" rx="36.5" ry="37" stroke="none"/>
      <ellipse cx="36.5" cy="37" rx="33" ry="33.5" fill="none"/>
    </g>
    <g id="Сгруппировать_75" data-name="Сгруппировать 75" transform="translate(828.063 579.125)">
      <path id="Контур_36" data-name="Контур 36" d="M-4521.455,3174.273l-5.41-3.976c-2.805-2.061-5.614-4.11-8.4-6.2a1.764,1.764,0,0,1-.649-1.016c-.106-.739.578-1.093,1.206-.641,1.227.884,2.444,1.792,3.666,2.69l11,8.075c.963.707.979,1.4.025,2.1q-7.327,5.39-14.664,10.763c-.769.563-1.27.218-1.272-.914q-.018-8.291,0-16.581c0-.633.09-1.249.721-1.226.606.021.713.609.712,1.256q0,7.011,0,14.023v1.24Z" transform="translate(4535.968 -3162.24)" fill="#fff"/>
    </g>
  </g>
</svg>
